<svg xmlns="http://www.w3.org/2000/svg" viewBox="0 0 489.71 489.71"><defs><style>.cls-1{fill:#2b68ff;}.cls-2,.cls-3,.cls-4,.cls-5{fill:#fff;}.cls-3{opacity:0.25;}.cls-4{opacity:0.15;}.cls-5{font-size:110.72px;font-family:AdventPro-Regular, Advent Pro;}</style></defs><g id="Layer_2" data-name="Layer 2"><g id="Calque_1" data-name="Calque 1"><rect class="cls-1" width="489.71" height="489.71" rx="33"/><path class="cls-2" d="M328.71,165.05c-18.8,39-150.13,130.89-150.13,130.89S168.53,136,187.34,97a78.46,78.46,0,1,1,141.37,68.1Z"/><path class="cls-3" d="M317.37,188.61c-18.81,39-150.14,130.89-150.14,130.89s-10-159.94,8.76-199a78.46,78.46,0,0,1,141.38,68.09Z"/><path class="cls-4" d="M306,212.18c-18.81,39-150.14,130.89-150.14,130.89s-10-159.95,8.76-199A78.46,78.46,0,0,1,306,212.18Z"/><text class="cls-5" transform="translate(136.74 446.28)">JVMP</text></g></g></svg>